<svg version="1.2" xmlns="http://www.w3.org/2000/svg" viewBox="0 0 360 360" width="360" height="360">
	<style>
		.s0 { fill: none;stroke: #8ff3ff;stroke-miterlimit:10;stroke-width: 10 } 
		.s1 { fill: #ffffff;stroke: #8ff3ff;stroke-miterlimit:10;stroke-width: 10 } 
		.s2 { fill: #8ff3ff;stroke: #8ff3ff;stroke-miterlimit:10 } 
	</style>
	<g id="Layer 1">
		<path id="Shape 1" fill-rule="evenodd" class="s0" d="m180 92.95c0 0 0 126.04 0 144.02 0 17.98 3.91 52.53-52.53 52.53-56.45 0-53.73-33.62-53.73-49.25 0-15.62-0.1-18.33-0.1-18.33"/>
		<path id="Shape 2" fill-rule="evenodd" class="s1" d="m280 274.45l-100-182"/>
		<path id="Shape 3" fill-rule="evenodd" class="s1" d="m74.5 94.45h228.16"/>
		<path id="Shape 4" fill-rule="evenodd" class="s1" d="m117.5 170.45h142.02"/>
		<path id="Shape 5" fill-rule="evenodd" class="s1" d="m403 208.95"/>
		<path id="Shape 6" fill-rule="evenodd" class="s2" d="m74 102c-4.42 0-8-3.58-8-8 0-4.42 3.58-8 8-8 4.42 0 8 3.58 8 8 0 4.42-3.58 8-8 8z"/>
		<path id="Shape 6 copy 2" fill-rule="evenodd" class="s2" d="m74 232c-4.42 0-8-3.58-8-8 0-4.42 3.58-8 8-8 4.42 0 8 3.58 8 8 0 4.42-3.58 8-8 8z"/>
		<path id="Shape 6 copy 3" fill-rule="evenodd" class="s2" d="m119 178c-4.42 0-8-3.58-8-8 0-4.42 3.58-8 8-8 4.42 0 8 3.58 8 8 0 4.42-3.58 8-8 8z"/>
		<path id="Shape 6 copy 4" fill-rule="evenodd" class="s2" d="m259 178c-4.42 0-8-3.58-8-8 0-4.42 3.58-8 8-8 4.42 0 8 3.58 8 8 0 4.42-3.58 8-8 8z"/>
		<path id="Shape 6 copy 5" fill-rule="evenodd" class="s2" d="m282 285c-4.42 0-8-3.58-8-8 0-4.42 3.58-8 8-8 4.42 0 8 3.58 8 8 0 4.42-3.58 8-8 8z"/>
		<path id="Shape 6 copy" fill-rule="evenodd" class="s2" d="m304 103c-4.42 0-8-3.58-8-8 0-4.42 3.58-8 8-8 4.42 0 8 3.58 8 8 0 4.42-3.58 8-8 8z"/>
	</g>
</svg>